<?xml version="1.0" encoding="UTF-8"?>
<svg id="Layer_1" xmlns="http://www.w3.org/2000/svg" version="1.1" xmlns:xlink="http://www.w3.org/1999/xlink" viewBox="0 0 623 623">
  <!-- Generator: Adobe Illustrator 30.2.1, SVG Export Plug-In . SVG Version: 2.1.1 Build 1)  -->
  <defs>
    <style>
      .st0, .st1, .st2, .st3, .st4, .st5, .st6, .st7, .st8, .st9, .st10, .st11, .st12, .st13, .st14, .st15, .st16, .st17, .st18, .st19, .st20, .st21, .st22, .st23, .st24, .st25, .st26, .st27, .st28, .st29, .st30, .st31, .st32, .st33, .st34, .st35, .st36, .st37 {
        fill: none;
      }

      .st0, .st1, .st2, .st3, .st5, .st6, .st7, .st8, .st10, .st38, .st11, .st13, .st14, .st15, .st16, .st39, .st18, .st19, .st20, .st22, .st24, .st25, .st40, .st26, .st27, .st28, .st41, .st42, .st30, .st32, .st33, .st34, .st37, .st43 {
        stroke: #898989;
      }

      .st0, .st2, .st7, .st8, .st10, .st11, .st17, .st39, .st20, .st21, .st24, .st25, .st29, .st32, .st33, .st34, .st43 {
        stroke-linejoin: round;
      }

      .st0, .st3, .st5, .st6, .st7, .st8, .st10, .st11, .st15, .st16, .st17, .st39, .st20, .st21, .st24, .st25, .st26, .st27, .st31, .st34, .st35, .st36, .st43 {
        stroke-linecap: round;
      }

      .st0, .st13 {
        stroke-width: 2.06px;
      }

      .st1 {
        stroke-width: 4px;
      }

      .st44, .st38, .st39, .st40, .st41, .st42, .st43 {
        fill: #898989;
      }

      .st2, .st8 {
        stroke-width: 1.5px;
      }

      .st3 {
        stroke-width: 4.19px;
      }

      .st4, .st17, .st23, .st29, .st36 {
        stroke: #1ed760;
      }

      .st4, .st22 {
        stroke-width: 1.78px;
      }

      .st5, .st28, .st34, .st43 {
        stroke-width: 2.36px;
      }

      .st6, .st14, .st39, .st24, .st41 {
        stroke-width: 2.02px;
      }

      .st45 {
        fill: #fff;
      }

      .st7, .st15, .st17, .st19, .st21, .st23, .st40, .st29, .st32, .st33, .st35, .st36 {
        stroke-width: 2px;
      }

      .st46 {
        mask: url(#mask);
      }

      .st9 {
        stroke: #9747ff;
        stroke-dasharray: 16.84 8.42;
      }

      .st9, .st11, .st26, .st30 {
        stroke-width: 1.68px;
      }

      .st10 {
        stroke-width: 1.96px;
      }

      .st38, .st37 {
        stroke-width: 2.32px;
      }

      .st47 {
        clip-path: url(#clippath-1);
      }

      .st16 {
        stroke-width: 2.53px;
      }

      .st18 {
        stroke-width: 1.8px;
      }

      .st20 {
        stroke-width: 2.02px;
      }

      .st21, .st31 {
        stroke: #000;
      }

      .st25 {
        stroke-width: 1.68px;
      }

      .st27 {
        stroke-width: 2.02px;
      }

      .st42 {
        stroke-width: .84px;
      }

      .st31 {
        stroke-width: 3.37px;
      }

      .st48 {
        clip-path: url(#clippath-2);
      }

      .st33 {
        stroke-dasharray: 3 3;
      }

      .st49 {
        fill: #1ed760;
      }

      .st35 {
        stroke: #e0e0e0;
        stroke-opacity: .5;
      }

      .st50 {
        clip-path: url(#clippath);
      }
    </style>
    <clipPath id="clippath">
      <rect class="st12" x="559.02" y="159.96" width="20.21" height="17.32"/>
    </clipPath>
    <clipPath id="clippath-1">
      <rect class="st12" x="271.09" y="213.84" width="23.57" height="23.57"/>
    </clipPath>
    <clipPath id="clippath-2">
      <rect class="st12" x="271.5" y="443.25" width="23.57" height="23.57"/>
    </clipPath>
    <mask id="mask" x="45.08" y="555.29" width="22.35" height="22.35" maskUnits="userSpaceOnUse">
      <g id="path-200-inside-1_24_316">
        <path class="st45" d="M50.91,575.34c-.39.39-1.02.39-1.41,0l-2.12-2.12c-.39-.39-.39-1.02,0-1.41l13.79-13.79c.98-.98,2.56-.98,3.54,0,.98.98.98,2.56,0,3.53l-13.79,13.79Z"/>
      </g>
    </mask>
  </defs>
  <rect class="st9" x=".84" y=".84" width="621.32" height="621.32" rx="7.58" ry="7.58"/>
  <g id="Pause">
    <circle class="st49" cx="53.88" cy="53.88" r="20.21"/>
    <path d="M60,52.56c1.02.59,1.02,2.06,0,2.65l-8.04,4.64c-1.02.59-2.3-.15-2.3-1.33v-9.28c0-1.18,1.28-1.91,2.3-1.33l8.04,4.64Z"/>
  </g>
  <path class="st44" d="M119.02,51.91c1.26.73,1.26,2.54,0,3.27l-9.9,5.71c-1.26.73-2.83-.18-2.83-1.63v-11.43c0-1.45,1.57-2.36,2.83-1.63l9.9,5.71Z"/>
  <circle class="st49" cx="168.38" cy="53.88" r="20.21"/>
  <path class="st31" d="M165.01,48.83v10.1"/>
  <path class="st31" d="M171.75,48.83v10.1"/>
  <path class="st3" d="M221.63,47.97v12.57"/>
  <path class="st3" d="M230.01,47.97v12.57"/>
  <path class="st16" d="M287.93,48.83v10.1"/>
  <path class="st44" d="M285.92,52.59c.94.6.94,1.97,0,2.58l-7,4.49c-1.02.65-2.36-.08-2.36-1.29v-8.98c0-1.21,1.34-1.94,2.36-1.29l7,4.49Z"/>
  <path class="st16" d="M335.07,48.83v10.1"/>
  <path class="st44" d="M337.08,55.17c-.94-.6-.94-1.97,0-2.58l7-4.49c1.02-.65,2.36.08,2.36,1.29v8.98c0,1.21-1.34,1.94-2.36,1.29l-7-4.49Z"/>
  <path class="st34" d="M399.06,48.83l-5.05,5.05,5.05,5.05"/>
  <path class="st34" d="M452.94,58.93l5.05-5.05-5.05-5.05"/>
  <path class="st34" d="M506.82,52.2l5.05,5.05,5.05-5.05"/>
  <path class="st34" d="M574.17,55.57l-5.05-5.05-5.05,5.05"/>
  <path class="st24" d="M49.67,117.02h-2.53c-1.86,0-3.37-1.51-3.37-3.37v-6.74c0-1.86,1.51-3.37,3.37-3.37h13.47c1.86,0,3.37,1.51,3.37,3.37v6.74c0,1.86-1.51,3.37-3.37,3.37h-6.74M53.88,117.02l3.37-3.37M53.88,117.02l3.37,3.37"/>
  <path class="st24" d="M101.03,103.55c1.58,0,3.06.78,3.94,2.09l.84,1.23,1.13,1.66M119.67,116.84h-4.92c-1.32,0-2.59-.52-3.53-1.44l-.93-.91M119.67,116.84l-3.49,3.54M119.67,116.84l-3.49-3.54"/>
  <path class="st24" d="M101.03,118.87c1.58,0,3.07-.77,3.98-2.07l6.17-8.77c.95-1.34,2.49-2.14,4.13-2.14h4.36M119.67,105.9l-3.49-3.54M119.67,105.9l-3.49,3.54"/>
  <path class="st24" d="M173.43,106.08l-5.05,5.05M163.33,116.18l5.05-5.05M168.38,111.13l-5.05-5.05M168.38,111.13l5.05,5.05"/>
  <path class="st24" d="M225.63,103.99v7.14M225.63,118.27v-7.14M225.63,111.13h-7.14M225.63,111.13h7.14"/>
  <path class="st24" d="M284.74,104.49l-1.86,1.81-1.86-1.81c-1.95-1.89-5.09-1.79-6.91.23-1.77,1.96-2.01,4.89-.41,6.99.2.26.39.5.57.73,1.17,1.43,3.71,3.93,4.99,5.27.94.99,1.79,1.82,2.43,2.42.67.64,1.71.62,2.39-.01,1.18-1.11,2.98-2.83,4.25-4.16,1.27-1.34,2.01-2.08,3.17-3.51.18-.23.38-.47.57-.73,1.6-2.1,1.36-5.03-.41-6.99-1.82-2.02-4.96-2.12-6.91-.23Z"/>
  <path class="st39" d="M341.99,104.49l-1.86,1.81-1.86-1.81c-1.95-1.89-5.09-1.79-6.91.23-1.77,1.96-2.01,4.89-.41,6.99.2.26.39.5.57.73,1.17,1.43,3.71,3.93,4.99,5.27.94.99,1.79,1.82,2.43,2.42.67.64,1.71.62,2.39-.01,1.18-1.11,2.98-2.83,4.25-4.16,1.27-1.34,2.01-2.08,3.17-3.51.18-.23.38-.47.57-.73,1.6-2.1,1.36-5.03-.41-6.99-1.82-2.02-4.96-2.12-6.91-.23Z"/>
  <path class="st11" d="M401.67,111.11h-4.31M393.04,111.11h4.31M397.36,111.11v-4.31M397.36,111.11v4.31"/>
  <circle class="st30" cx="397.37" cy="111.13" r="9.26"/>
  <path class="st11" d="M454.6,109.5v5.93"/>
  <path class="st24" d="M454.62,106.03h0v.04"/>
  <circle class="st30" cx="454.62" cy="111.13" r="9.26"/>
  <path class="st30" d="M511.87,101.87c5.11,0,9.26,4.15,9.26,9.26,0,2.35-.87,4.49-2.32,6.13-1.7,1.92-4.18,3.14-6.95,3.14-5.11,0-9.26-4.15-9.26-9.26,0-2.37.89-4.53,2.36-6.17,1.7-1.9,4.16-3.09,6.9-3.09Z"/>
  <path class="st24" d="M569.12,106.08v9.86M569.12,115.94l3.37-3.37M569.12,115.94l-3.37-3.37"/>
  <circle class="st30" cx="569.12" cy="111.13" r="9.26"/>
  <path class="st15" d="M44.76,162.25h12"/>
  <path class="st15" d="M44.76,169.25h8"/>
  <path class="st15" d="M44.76,176.25h8"/>
  <path class="st7" d="M62.76,161.25v8.93M62.76,170.18v4.67c0,.75-.53,1.4-1.28,1.4-1.48,0-3.72-.43-3.72-3.09,0-3.97,5-2.98,5-2.98Z"/>
  <path class="st7" d="M111.25,163v5.55l4.68,2.89"/>
  <path class="st19" d="M101.25,168c0,5.52,4.48,10,10,10s10-4.48,10-10-4.48-10-10-10"/>
  <path class="st33" d="M101.25,168c0-5.52,4.48-10,10-10"/>
  <path class="st15" d="M159.25,161h4.66"/>
  <path class="st15" d="M159.25,167.22h4.66"/>
  <path class="st7" d="M169.14,159c5.03,0,9.11,4.08,9.11,9.11s-4.08,9.11-9.11,9.11c0,0-5.33,0-8-4.44"/>
  <path class="st7" d="M169.35,162.56v5.55l4.68,2.89"/>
  <path class="st36" d="M216.5,161h4.66"/>
  <path class="st36" d="M216.5,167.22h4.66"/>
  <path class="st17" d="M226.39,159c5.03,0,9.11,4.08,9.11,9.11s-4.08,9.11-9.11,9.11c0,0-5.33,0-8-4.44"/>
  <path class="st17" d="M226.59,162.56v5.55l4.68,2.89"/>
  <circle class="st49" cx="225.5" cy="184" r="2"/>
  <path class="st28" d="M274.46,162.77c0-1.55,1.26-2.81,2.81-2.81h11.23c1.55,0,2.81,1.26,2.81,2.81s-1.26,2.81-2.81,2.81h-11.23c-1.55,0-2.81-1.26-2.81-2.81Z"/>
  <path class="st34" d="M274.46,171.19h16.84"/>
  <path class="st34" d="M274.46,176.8h16.84"/>
  <path class="st34" d="M331.7,171.19h16.84"/>
  <path class="st34" d="M331.7,176.8h16.84"/>
  <path class="st24" d="M337.61,160.81l2.54,2.54M342.69,165.89l-2.54-2.54M340.15,163.35l2.54-2.54M340.15,163.35l-2.54,2.54"/>
  <path class="st5" d="M396.53,159.96h-4.77c-1.55,0-2.81,1.26-2.81,2.81s1.26,2.81,2.81,2.81h4.77"/>
  <path class="st34" d="M388.95,171.19h16.84"/>
  <path class="st34" d="M388.95,176.8h16.84"/>
  <path class="st24" d="M400.74,162.49h2.52M405.79,162.49h-2.53M403.27,162.49v-2.53M403.27,162.49v2.52"/>
  <rect class="st13" x="451.67" y="159.54" width="11.79" height="17.68" rx="2.95" ry="2.95"/>
  <circle class="st44" cx="457.57" cy="171.33" r="2.95"/>
  <circle class="st44" cx="457.57" cy="163.96" r="1.47"/>
  <circle class="st44" cx="447.26" cy="175.75" r="1.47"/>
  <path class="st0" d="M447.99,170.59h-.74c-.81,0-1.47-.66-1.47-1.47v-5.16c0-.81.66-1.47,1.47-1.47h.74"/>
  <path class="st44" d="M511.03,170.91c0-.93.75-1.68,1.68-1.68h7.58c.93,0,1.68.75,1.68,1.68v4.21c0,.93-.75,1.68-1.68,1.68h-7.58c-.93,0-1.68-.75-1.68-1.68v-4.21Z"/>
  <path class="st24" d="M508.5,175.96h-4.21c-.93,0-1.68-.75-1.68-1.68v-11.79c0-.93.75-1.68,1.68-1.68h15.15c.93,0,1.68.75,1.68,1.68v4.21"/>
  <g class="st50">
    <g>
      <path class="st24" d="M560.46,165.73v-3.25c0-.6.48-1.08,1.08-1.08h3.25"/>
      <path class="st24" d="M577.78,165.73v-3.25c0-.6-.48-1.08-1.08-1.08h-3.25"/>
      <path class="st24" d="M560.46,171.51v3.25c0,.6.48,1.08,1.08,1.08h3.25"/>
      <path class="st24" d="M577.78,171.51v3.25c0,.6-.48,1.08-1.08,1.08h-3.25"/>
    </g>
  </g>
  <path class="st24" d="M61.46,225.63h-14.31M47.15,225.63l5.89,5.89M47.15,225.63l5.89-5.89"/>
  <path class="st24" d="M104.39,225.63h14.31M118.71,225.63l-5.89-5.89M118.71,225.63l-5.89,5.89"/>
  <path class="st24" d="M168.8,218.47v14.31M168.8,232.79l5.89-5.89M168.8,232.79l-5.89-5.89"/>
  <path class="st24" d="M226.05,232.78v-14.31M226.05,218.47l-5.89,5.89M226.05,218.47l5.89,5.89"/>
  <g class="st47">
    <g>
      <path class="st14" d="M275.53,229.24c-2.98-1.49-2.98-5.74,0-7.23l8.73-4.37c.45-.22.97.1.97.6v14.76c0,.5-.53.83-.97.6l-8.73-4.37Z"/>
      <path class="st26" d="M289.61,230.68c.79-.21,1.52-.69,2.1-1.39.81-.97,1.27-2.29,1.27-3.66s-.46-2.69-1.27-3.66c-.58-.7-1.31-1.17-2.1-1.39"/>
      <path class="st42" d="M288.77,225.12c0-.18.15-.34.32-.27.1.04.2.1.27.18.08.08.14.17.18.27.04.1.06.21.06.32s-.02.22-.06.32c-.04.1-.11.19-.18.27-.08.08-.17.14-.27.18-.17.07-.32-.08-.32-.27v-1.02Z"/>
    </g>
  </g>
  <path class="st14" d="M343.49,218.89c0,1.86-1.51,3.37-3.37,3.37s-3.37-1.51-3.37-3.37,1.51-3.37,3.37-3.37,3.37,1.51,3.37,3.37Z"/>
  <path class="st24" d="M333.2,228l.75-.5c1.83-1.22,3.97-1.87,6.17-1.87s4.34.65,6.17,1.87l.75.5c.94.62,1.5,1.68,1.5,2.8v1.68c0,.87-.7,1.57-1.57,1.57h-13.69c-.87,0-1.57-.7-1.57-1.57v-1.68c0-1.13.56-2.18,1.5-2.8Z"/>
  <path class="st41" d="M400.74,218.89c0,1.86-1.51,3.37-3.37,3.37s-3.37-1.51-3.37-3.37,1.51-3.37,3.37-3.37,3.37,1.51,3.37,3.37Z"/>
  <path class="st39" d="M390.45,228l.75-.5c1.83-1.22,3.97-1.87,6.17-1.87s4.34.65,6.17,1.87l.75.5c.94.62,1.5,1.68,1.5,2.8v1.68c0,.87-.7,1.57-1.57,1.57h-13.69c-.87,0-1.57-.7-1.57-1.57v-1.68c0-1.13.56-2.18,1.5-2.8Z"/>
  <path class="st14" d="M463.82,219.74c0,1.86-1.51,3.37-3.37,3.37s-3.37-1.51-3.37-3.37,1.51-3.37,3.37-3.37,3.37,1.51,3.37,3.37Z"/>
  <path class="st24" d="M453.53,228.84l.75-.5c1.83-1.22,3.97-1.87,6.17-1.87s4.34.65,6.17,1.87l.75.5c.94.62,1.5,1.68,1.5,2.8v1.68c0,.87-.7,1.57-1.57,1.57h-13.69c-.87,0-1.57-.7-1.57-1.57v-1.68c0-1.13.56-2.18,1.5-2.8Z"/>
  <path class="st14" d="M452.4,219.74c0,1.86-1.51,3.37-3.37,3.37s-3.37-1.51-3.37-3.37,1.51-3.37,3.37-3.37,3.37,1.51,3.37,3.37Z"/>
  <path class="st24" d="M449.03,226.47c-2.2,0-4.34.65-6.17,1.87l-.75.5c-.94.62-1.5,1.68-1.5,2.8v1.68c0,.87.7,1.57,1.57,1.57h6.06"/>
  <path class="st41" d="M521.07,219.74c0,1.86-1.51,3.37-3.37,3.37s-3.37-1.51-3.37-3.37,1.51-3.37,3.37-3.37,3.37,1.51,3.37,3.37Z"/>
  <path class="st39" d="M510.78,228.84l.75-.5c1.83-1.22,3.97-1.87,6.17-1.87s4.34.65,6.17,1.87l.75.5c.94.62,1.5,1.68,1.5,2.8v1.68c0,.87-.7,1.57-1.57,1.57h-13.69c-.87,0-1.57-.7-1.57-1.57v-1.68c0-1.13.56-2.18,1.5-2.8Z"/>
  <path class="st41" d="M509.65,219.74c0,1.86-1.51,3.37-3.37,3.37s-3.37-1.51-3.37-3.37,1.51-3.37,3.37-3.37,3.37,1.51,3.37,3.37Z"/>
  <path class="st39" d="M499.58,228.87l.4-.22c1.92-1.08,4.1-1.65,6.3-1.65,0,0-.65,2.21-.79,4-.05.67-.06,1.51-.05,2.24.01.9-.7,1.65-1.6,1.65h-4.41c-.87,0-1.57-.7-1.57-1.57v-1.51c0-1.22.66-2.34,1.72-2.94Z"/>
  <path class="st25" d="M576.79,229.7h-15.06c-1.19,0-1.84-1.39-1.08-2.3l1.25-1.51c.21-.26.32-.59.32-.92-.02-2.12.35-10,7.03-10s7.05,7.89,7.03,10c0,.34.1.66.32.92l1.25,1.51c.76.91.11,2.3-1.08,2.3Z"/>
  <path class="st25" d="M565.75,232.5s.7,2.1,3.51,2.1,3.51-2.1,3.51-2.1"/>
  <path class="st14" d="M57.25,276.14c0,1.86-1.51,3.37-3.37,3.37s-3.37-1.51-3.37-3.37,1.51-3.37,3.37-3.37,3.37,1.51,3.37,3.37Z"/>
  <path class="st24" d="M50.51,282.88l-3.55,2.37c-.94.62-1.5,1.68-1.5,2.8v1.68c0,.87.7,1.57,1.57,1.57h12.74"/>
  <path class="st24" d="M57.25,283.72h2.53M62.3,283.72h-2.53M59.77,283.72v-2.53M59.77,283.72v2.53"/>
  <path class="st14" d="M114.5,276.14c0,1.86-1.51,3.37-3.37,3.37s-3.37-1.51-3.37-3.37,1.51-3.37,3.37-3.37,3.37,1.51,3.37,3.37Z"/>
  <path class="st24" d="M107.76,282.88l-3.55,2.37c-.94.62-1.5,1.68-1.5,2.8v1.68c0,.87.7,1.57,1.57,1.57h6.85"/>
  <path class="st11" d="M118.71,276.14v7.58M118.71,283.72v3.76c0,.75-.53,1.4-1.28,1.38-1.24-.04-2.93-.48-2.93-2.62,0-3.37,4.21-2.52,4.21-2.52Z"/>
  <path class="st24" d="M159.74,274.23v17.29"/>
  <path class="st24" d="M165.5,274.23v17.29"/>
  <path class="st24" d="M171.26,291.52v-17.29l5.76,3.99v13.3h-5.76Z"/>
  <path class="st24" d="M216.98,282.75v8.77"/>
  <path class="st24" d="M222.75,282.75v8.77"/>
  <path class="st24" d="M228.51,291.52v-17.29l2.88,1.99,2.88,1.99v13.3h-5.76Z"/>
  <path class="st24" d="M217.25,276.72h2.53M222.3,276.72h-2.52M219.78,276.72v-2.53M219.78,276.72v2.53"/>
  <path class="st24" d="M274.23,274.23v17.29"/>
  <path class="st24" d="M279.99,274.23v17.29"/>
  <path class="st39" d="M285.76,291.52v-17.29l5.76,3.99v13.3h-5.76Z"/>
  <path class="st6" d="M344.65,287.03c1.54-1.57,2.49-3.72,2.49-6.09,0-4.8-3.89-8.7-8.7-8.7s-8.7,3.89-8.7,8.7,3.89,8.7,8.7,8.7c2.43,0,4.63-1,6.21-2.61ZM344.65,287.03l5.09,5.22"/>
  <path class="st6" d="M401.91,287.03c1.54-1.57,2.48-3.72,2.48-6.09,0-4.8-3.89-8.7-8.69-8.7s-8.7,3.89-8.7,8.7,3.89,8.7,8.7,8.7c2.43,0,4.63-1,6.21-2.61ZM401.91,287.03l5.09,5.22"/>
  <circle class="st44" cx="395.7" cy="280.95" r="5.7"/>
  <path class="st34" d="M459.67,291.3h3.37c.93,0,1.68-.75,1.68-1.68v-7.51c0-.49-.22-.97-.6-1.29l-8.42-7.12c-.63-.53-1.55-.53-2.18,0l-8.42,7.12c-.38.32-.6.79-.6,1.29v7.51c0,.93.75,1.68,1.68,1.68h3.37"/>
  <path class="st43" d="M501.77,282.1v7.51c0,.93.75,1.68,1.68,1.68h3.37c.57.03,1.04-.42,1.04-.99v-4.91c0-.93.75-1.68,1.67-1.68l4.79-.03c.93,0,1.7.75,1.7,1.68v5.02c0,.5.41.91.91.91h3.37c.93,0,1.68-.75,1.68-1.68v-7.51c0-.49-.22-.97-.6-1.29l-8.42-7.12c-.63-.53-1.55-.53-2.18,0l-8.42,7.12c-.38.32-.6.79-.6,1.29Z"/>
  <circle class="st44" cx="560.7" cy="282.88" r="1.68"/>
  <circle class="st44" cx="569.12" cy="282.88" r="1.68"/>
  <circle class="st44" cx="577.54" cy="282.88" r="1.68"/>
  <circle class="st14" cx="53.88" cy="340.12" r="2.76"/>
  <path class="st6" d="M53.88,350.23c-5.58,0-10.1-4.52-10.1-10.1s4.52-10.1,10.1-10.1c2.91,0,5.54,1.23,7.38,3.21"/>
  <path class="st11" d="M62.97,337.5v7.58M62.97,345.08v3.76c0,.75-.53,1.4-1.28,1.38-1.24-.04-2.93-.48-2.93-2.62,0-3.37,4.21-2.53,4.21-2.53Z"/>
  <circle class="st44" cx="111.13" cy="340.13" r="1.96"/>
  <path class="st10" d="M114.53,335.64c1.25,1,2.06,2.54,2.06,4.27s-.8,3.27-2.06,4.27M107.73,344.18c-1.25-1-2.06-2.54-2.06-4.27s.73-3.11,1.87-4.11"/>
  <path class="st10" d="M117.25,332.27c2.26,1.79,3.7,4.55,3.7,7.64s-1.45,5.85-3.7,7.64M105.01,347.55c-2.26-1.79-3.7-4.55-3.7-7.64s1.31-5.57,3.37-7.36"/>
  <rect class="st32" x="158.25" y="331.25" width="20" height="20" rx="3" ry="3"/>
  <path class="st2" d="M160.25,331.25h16c0-1.66-1.34-3-3-3h-10c-1.66,0-3,1.34-3,3Z"/>
  <path class="st8" d="M168.76,342.2v-5.33c0-.34.28-.62.62-.62h2.12M168.76,342.2v3.02c0,.55-.39,1.04-.95,1.03-.96-.02-2.31-.36-2.31-2.06,0-2.65,3.26-1.98,3.26-1.98Z"/>
  <rect class="st32" x="215.25" y="331.25" width="20" height="20" rx="3" ry="3"/>
  <path class="st2" d="M217.25,331.25h16c0-1.66-1.34-3-3-3h-10c-1.66,0-3,1.34-3,3Z"/>
  <path class="st24" d="M221.25,341.25h4M229.25,341.25h-4M225.25,341.25v-4M225.25,341.25v4"/>
  <path class="st32" d="M293.5,346.25c0,1.66-1.34,3-3,3h-16c-1.66,0-3-1.34-3-3v-12.5c0-1.66,1.34-3,3-3h4.36c1.02,0,1.97.52,2.53,1.38l.35.54c.55.86,1.5,1.38,2.52,1.38h6.24c1.66,0,3,1.34,3,3v9.2Z"/>
  <path class="st24" d="M340.61,341.93v-11.28M340.61,330.66l-4.64,4.64M340.61,330.66l4.64,4.64M348.9,340.28v4.64c0,1.46-1.19,2.65-2.65,2.65h-11.28c-1.46,0-2.65-1.19-2.65-2.65v-4.64"/>
  <path class="st27" d="M397.1,333.7v5.93c0,2.46,1.99,4.45,4.45,4.45s4.45-1.99,4.45-4.45v-5.93c0-2.46-1.99-4.45-4.45-4.45s-4.45,1.99-4.45,4.45Z"/>
  <path class="st27" d="M393.15,340.12s.99,7.91,8.4,7.91M401.55,348.03c7.41,0,8.4-7.91,8.4-7.91M401.55,348.03v3.46"/>
  <path class="st27" d="M384.75,334.29h5.88"/>
  <path class="st27" d="M384.75,341.01h4.2"/>
  <path class="st27" d="M384.75,347.73h5.88"/>
  <path class="st37" d="M446.74,332.32v16.3c0,.94,1.07,1.49,1.83.94l4.94-3.53c.81-.58,1.89-.58,2.7,0l4.94,3.53c.77.55,1.83,0,1.83-.94v-16.3c0-1.28-1.04-2.32-2.32-2.32h-11.6c-1.28,0-2.32,1.04-2.32,2.32Z"/>
  <path class="st38" d="M503.74,332.32v16.3c0,.94,1.07,1.49,1.83.94l4.94-3.53c.81-.58,1.89-.58,2.7,0l4.94,3.53c.77.55,1.83,0,1.83-.94v-16.3c0-1.28-1.04-2.32-2.32-2.32h-11.6c-1.28,0-2.32,1.04-2.32,2.32Z"/>
  <path class="st7" d="M569.24,350.25l-8.54-2.38c-.86-.24-1.46-1.03-1.46-1.93v-13.17c0-1.29,1.2-2.24,2.45-1.95l6,1.39c.91.21,1.55,1.02,1.55,1.95v16.09ZM569.24,350.25l8.54-2.38c.86-.24,1.46-1.03,1.46-1.93v-13.11c0-1.31-1.23-2.26-2.5-1.94l-4.7,1.21"/>
  <rect class="st29" x="43.51" y="389.25" width="21" height="17" rx="4" ry="4"/>
  <path class="st49" d="M51.51,395.06v5.38c0,.37.39.61.72.45l5.38-2.69c.37-.18.37-.71,0-.89l-5.38-2.69c-.33-.17-.72.08-.72.45Z"/>
  <path class="st7" d="M120.25,393.59l1.52,1.52M120.25,393.59l-6.7,6.7c-.12.12-.2.28-.22.46l-.33,2.75c-.08.64-.86.92-1.32.46l-3.93-3.93M120.25,393.59l-6.07-6.07M112.66,386l1.52,1.52M114.17,387.52l-6.7,6.7c-.12.12-.28.2-.46.22l-2.75.33c-.64.08-.92.87-.46,1.32l3.93,3.93M107.74,400.03l-5.17,5.17"/>
  <path class="st17" d="M177.49,393.59l1.52,1.52M177.49,393.59l-6.7,6.7c-.12.12-.2.28-.22.46l-.34,2.75c-.08.64-.86.92-1.32.46l-3.93-3.93M177.49,393.59l-6.07-6.07M169.9,386l1.52,1.52M171.42,387.52l-6.7,6.7c-.12.12-.28.2-.46.22l-2.75.33c-.64.08-.92.87-.46,1.32l3.93,3.93M164.98,400.03l-5.17,5.17"/>
  <path class="st19" d="M226.01,387.99c1.23,4.37,4.64,7.78,9,9l1.79.5-1.79.5c-4.37,1.23-7.78,4.64-9,9l-.5,1.79-.5-1.79c-1.22-4.37-4.64-7.78-9-9l-1.79-.5,1.79-.5c4.37-1.23,7.78-4.64,9-9l.5-1.79.5,1.79Z"/>
  <path class="st40" d="M283.26,387.99c1.23,4.37,4.64,7.78,9,9l1.79.5-1.79.5c-4.37,1.23-7.78,4.64-9,9l-.5,1.79-.5-1.79c-1.23-4.37-4.64-7.78-9-9l-1.8-.5,1.8-.5c4.36-1.23,7.78-4.64,9-9l.5-1.79.5,1.79Z"/>
  <path class="st15" d="M330.99,391.25h18"/>
  <path class="st15" d="M330.99,397.25h18"/>
  <path class="st15" d="M330.99,403.25h18"/>
  <circle class="st44" cx="393.89" cy="389.9" r="1.9"/>
  <circle class="st44" cx="401.49" cy="389.9" r="1.9"/>
  <circle class="st44" cx="393.89" cy="397.5" r="1.9"/>
  <circle class="st44" cx="393.89" cy="405.1" r="1.9"/>
  <circle class="st44" cx="401.49" cy="397.5" r="1.9"/>
  <circle class="st44" cx="401.49" cy="405.1" r="1.9"/>
  <path class="st15" d="M445.49,391.25h18"/>
  <path class="st15" d="M449,397.25h10"/>
  <path class="st15" d="M452,403.25h4"/>
  <path class="st24" d="M518.64,403.97v-13.28M518.64,390.7l-4.64,4.64M518.64,390.7l4.64,4.64"/>
  <path class="st24" d="M505.64,390.97v13.28M505.64,404.25l4.64-4.64M505.64,404.25l-4.64-4.64"/>
  <path class="st15" d="M565.5,391.25h12"/>
  <path class="st15" d="M559.91,391.25h1"/>
  <path class="st15" d="M565.5,397.25h12"/>
  <path class="st15" d="M559.91,397.25h1"/>
  <path class="st15" d="M565.5,403.25h12"/>
  <path class="st15" d="M559.91,403.25h1"/>
  <rect class="st19" x="44.01" y="444.5" width="8.18" height="8.18" rx="2" ry="2"/>
  <rect class="st19" x="44.01" y="456.31" width="8.18" height="8.18" rx="2" ry="2"/>
  <rect class="st19" x="55.83" y="444.5" width="8.18" height="8.18" rx="2" ry="2"/>
  <rect class="st19" x="55.83" y="456.31" width="8.18" height="8.18" rx="2" ry="2"/>
  <path class="st15" d="M104.75,462v-5.5M110.75,462v-14.5M116.75,462v-9"/>
  <circle class="st18" cx="168.76" cy="454.5" r="10.1"/>
  <circle class="st49" cx="226.01" cy="454.5" r="11"/>
  <path class="st21" d="M221.76,455l3,3,5.5-5.5"/>
  <g class="st48">
    <path class="st30" d="M288.42,455.09c2.81,0,5.08-2.27,5.08-5.08s-2.27-5.08-5.08-5.08-5.08,2.27-5.08,5.08M288.42,455.09c-2.81,0-5.08-2.27-5.08-5.08M288.42,455.09l-10.86,9.64c-.48.43-1.1.66-1.75.66-1.45,0-2.63-1.19-2.63-2.64,0-.64.23-1.25.64-1.73l9.52-11.01"/>
  </g>
  <path class="st20" d="M333,453.73l5.38,5.38,9.86-9.86"/>
  <path class="st19" d="M396.58,445.4c.35-.81,1.49-.81,1.84,0l1.94,4.54c.15.34.46.57.83.6l4.92.44c.88.08,1.23,1.17.57,1.75l-3.72,3.25c-.28.24-.4.62-.32.98l1.1,4.81c.2.86-.73,1.53-1.49,1.08l-4.24-2.53c-.32-.19-.71-.19-1.03,0l-4.24,2.53c-.75.45-1.68-.22-1.49-1.08l1.1-4.81c.08-.36-.04-.73-.32-.98l-3.72-3.25c-.66-.58-.31-1.67.57-1.75l4.92-.44c.37-.03.68-.26.83-.6l1.94-4.54Z"/>
  <path class="st19" d="M445.75,461.84v-7.99c0-.87.71-1.58,1.58-1.58h1.63c.56,0,1.09-.3,1.37-.79l2.99-5.15c.81-1.4,2.95-.82,2.95.8v3.56c0,.87.71,1.58,1.58,1.58h2.12c2.04,0,3.54,1.89,3.09,3.88l-1.11,4.82c-.33,1.44-1.61,2.46-3.09,2.46h-11.55c-.88,0-1.58-.71-1.58-1.58Z"/>
  <path class="st19" d="M521.21,447.83v7.99c0,.88-.71,1.58-1.58,1.58h-1.63c-.56,0-1.09.3-1.37.79l-2.99,5.15c-.81,1.4-2.95.82-2.95-.8v-3.56c0-.88-.71-1.58-1.58-1.58h-2.12c-2.04,0-3.54-1.89-3.09-3.88l1.11-4.82c.33-1.44,1.61-2.46,3.09-2.46h11.55c.88,0,1.58.71,1.58,1.58Z"/>
  <path class="st19" d="M571.35,466h-4.23c-.28,0-.53-.09-.73-.27-.21-.18-.33-.41-.37-.69l-.34-2.56c-.24-.09-.47-.2-.69-.33-.22-.13-.43-.27-.64-.41l-2.46.99c-.26.09-.53.1-.79.03s-.47-.23-.62-.47l-2.09-3.55c-.15-.24-.2-.49-.14-.77.06-.27.2-.49.42-.66l2.12-1.57c-.02-.13-.03-.25-.03-.37v-.74c0-.12.01-.24.03-.37l-2.12-1.57c-.23-.17-.37-.39-.42-.66-.06-.27,0-.53.14-.77l2.09-3.55c.13-.26.33-.42.61-.48.27-.06.54-.05.8.04l2.46.99c.21-.15.42-.29.65-.41.23-.13.45-.24.68-.33l.34-2.56c.04-.28.16-.51.37-.69.21-.18.45-.27.73-.27h4.23c.28,0,.53.09.73.27.21.18.33.41.37.69l.34,2.56c.24.09.48.2.69.33.22.13.43.27.64.41l2.46-.99c.26-.09.53-.1.79-.03.26.07.47.23.62.47l2.09,3.55c.15.24.2.49.14.77-.06.27-.2.49-.42.66l-2.12,1.57c.02.13.03.25.03.37v.74c0,.12-.02.24-.06.37l2.12,1.57c.23.17.37.39.42.66.06.27,0,.53-.14.77l-2.09,3.52c-.15.24-.36.4-.63.48-.27.08-.54.08-.8-.02l-2.4-.99c-.21.15-.42.28-.65.41-.23.13-.45.24-.68.33l-.34,2.56c-.04.27-.16.5-.37.69-.21.18-.45.27-.73.27Z"/>
  <circle class="st19" cx="569.24" cy="455" r="3.35"/>
  <path class="st15" d="M59.07,504.59c2.81,1.8,4.68,4.95,4.68,8.53,0,5.59-4.53,10.12-10.12,10.12s-10.12-4.53-10.12-10.12c0-3.59,1.86-6.74,4.68-8.53"/>
  <path class="st7" d="M53.85,510.37v-8.74"/>
  <path class="st7" d="M98.5,508.5v9.49c0,1.53,1.24,2.78,2.78,2.78h19.44c1.53,0,2.78-1.24,2.78-2.78v-9.49c0-1.53-1.24-2.78-2.78-2.78h-1.45c-.53,0-1.04-.23-1.39-.63l-1.93-2.21c-.35-.4-.86-.63-1.39-.63h-7.44c-.53,0-1.04.23-1.39.63l-1.93,2.21c-.35.4-.86.63-1.39.63h-1.11c-1.53,0-2.78,1.24-2.78,2.78Z"/>
  <circle class="st19" cx="111" cy="511.97" r="4.17"/>
  <path class="st44" d="M168.9,510.38c.94.6.94,1.97,0,2.58l-7,4.49c-1.02.65-2.36-.08-2.36-1.29v-8.98c0-1.21,1.34-1.94,2.36-1.29l7,4.49Z"/>
  <path class="st44" d="M178.9,510.38c.94.6.94,1.97,0,2.58l-7,4.49c-1.02.65-2.36-.08-2.36-1.29v-8.98c0-1.21,1.34-1.94,2.36-1.29l7,4.49Z"/>
  <path class="st19" d="M225.72,503.89c4.39.03,7.96,3.15,10.04,5.5,1.31,1.48,1.29,3.64-.07,5.07-2.06,2.17-5.55,4.96-9.86,4.93-4.33-.03-7.88-2.89-9.96-5.1-1.36-1.43-1.39-3.59-.09-5.07,2.05-2.32,5.57-5.36,9.94-5.33Z"/>
  <circle class="st44" cx="225.8" cy="511.6" r="4.25"/>
  <path class="st15" d="M283.07,518.67c-1.96-.01-3.76-.63-5.32-1.5M283.07,518.67v3.08M283.07,518.67c2.02.01,3.85-.61,5.43-1.5M294.54,511.51s-.64.99-1.8,2.24M271.51,511.35s.7,1.07,1.96,2.4M273.47,513.75l-2.71,2.71M273.47,513.75c1.07,1.12,2.52,2.43,4.29,3.41M277.75,517.16l-2,3.09M288.5,517.16l1.75,3.09M288.5,517.16c1.76-.99,3.2-2.3,4.23-3.41M292.73,513.75l2.52,2.52"/>
  <circle class="st18" cx="339.75" cy="513" r="10.1"/>
  <path class="st15" d="M339.75,506v5"/>
  <path class="st15" d="M343.75,500h-8"/>
  <path class="st15" d="M391.66,507.22h10.72"/>
  <path class="st15" d="M391.66,512.43h7.15"/>
  <path class="st19" d="M386.75,515.48v-10.87c0-1.44,1.17-2.61,2.61-2.61h15.78c1.44,0,2.61,1.17,2.61,2.61v10.87c0,1.44-1.17,2.61-2.61,2.61h-3.29c-.79,0-1.54.36-2.04.98l-.99,1.23c-.7.87-2.02.87-2.72,0l-.99-1.23c-.49-.62-1.24-.98-2.04-.98h-3.73c-1.44,0-2.61-1.17-2.61-2.61Z"/>
  <path class="st36" d="M448.91,507.22h10.72"/>
  <path class="st36" d="M448.91,512.43h7.15"/>
  <path class="st23" d="M443.99,515.48v-10.87c0-1.44,1.17-2.61,2.61-2.61h15.78c1.44,0,2.61,1.17,2.61,2.61v10.87c0,1.44-1.17,2.61-2.61,2.61h-3.29c-.79,0-1.54.36-2.04.98l-.99,1.23c-.7.87-2.02.87-2.72,0l-.99-1.23c-.49-.62-1.24-.98-2.04-.98h-3.73c-1.44,0-2.61-1.17-2.61-2.61Z"/>
  <circle class="st49" cx="455.24" cy="527" r="2"/>
  <path class="st44" d="M513.59,522c-.4,0-.69-.13-.86-.39-.17-.26-.2-.58-.06-.96l3.65-9.68c.1-.27.29-.5.56-.69.28-.19.56-.29.86-.29.28,0,.57.1.85.29.28.19.47.42.58.69l3.65,9.68c.13.38.11.7-.06.96-.17.26-.47.39-.89.39-.18,0-.35-.06-.5-.17-.15-.12-.26-.26-.32-.42l-.85-2.45h-4.85l-.88,2.45c-.07.17-.18.31-.35.42-.17.12-.34.17-.52.17ZM515.94,517.2h3.6l-1.75-4.95h-.1l-1.75,4.95ZM507.39,508.55c.27.48.55.93.85,1.34.3.41.65.83,1.05,1.26.73-.8,1.34-1.62,1.83-2.46.48-.84.89-1.74,1.23-2.69h-10.1c-.28,0-.52-.1-.71-.29-.19-.19-.29-.43-.29-.71s.1-.52.29-.71c.19-.19.43-.29.71-.29h6v-1c0-.28.1-.52.29-.71.19-.19.43-.29.71-.29s.52.1.71.29c.19.19.29.43.29.71v1h6c.28,0,.52.1.71.29.19.19.29.43.29.71s-.1.52-.29.71c-.19.19-.43.29-.71.29h-1.9c-.35,1.18-.83,2.33-1.42,3.45-.6,1.12-1.34,2.17-2.23,3.15l2.4,2.45-.75,2.05-3.1-3.1-4.3,4.3c-.18.18-.42.28-.7.28s-.52-.09-.7-.28c-.18-.18-.27-.42-.27-.7s.09-.52.27-.7l4.35-4.35c-.45-.52-.87-1.04-1.25-1.56-.38-.52-.73-1.08-1.02-1.66-.18-.35-.19-.66-.03-.92.17-.27.46-.4.88-.4.17,0,.34.05.53.16.18.11.32.24.4.39Z"/>
  <path class="st49" d="M570.84,522c-.4,0-.69-.13-.86-.39-.17-.26-.2-.58-.06-.96l3.65-9.68c.1-.27.29-.5.56-.69.28-.19.56-.29.86-.29.28,0,.57.1.85.29.28.19.48.42.58.69l3.65,9.68c.13.38.11.7-.06.96-.17.26-.47.39-.89.39-.18,0-.35-.06-.5-.17s-.26-.26-.33-.42l-.85-2.45h-4.85l-.88,2.45c-.07.17-.18.31-.35.42s-.34.17-.53.17ZM573.19,517.2h3.6l-1.75-4.95h-.1l-1.75,4.95ZM564.64,508.55c.27.48.55.93.85,1.34.3.41.65.83,1.05,1.26.73-.8,1.34-1.62,1.83-2.46.48-.84.89-1.74,1.22-2.69h-10.1c-.28,0-.52-.1-.71-.29-.19-.19-.29-.43-.29-.71s.1-.52.29-.71c.19-.19.43-.29.71-.29h6v-1c0-.28.1-.52.29-.71.19-.19.43-.29.71-.29s.52.1.71.29c.19.19.29.43.29.71v1h6c.28,0,.52.1.71.29.19.19.29.43.29.71s-.1.52-.29.71c-.19.19-.43.29-.71.29h-1.9c-.35,1.18-.82,2.33-1.42,3.45-.6,1.12-1.34,2.17-2.22,3.15l2.4,2.45-.75,2.05-3.1-3.1-4.3,4.3c-.18.18-.42.28-.7.28s-.52-.09-.7-.28c-.18-.18-.27-.42-.27-.7s.09-.52.27-.7l4.35-4.35c-.45-.52-.87-1.04-1.25-1.56-.38-.52-.73-1.08-1.03-1.66-.18-.35-.19-.66-.03-.92s.46-.4.88-.4c.17,0,.34.05.53.16.18.11.32.24.4.39Z"/>
  <circle class="st49" cx="569.24" cy="527" r="2"/>
  <g class="st46">
    <path class="st1" d="M50.91,575.34c-.39.39-1.02.39-1.41,0l-2.12-2.12c-.39-.39-.39-1.02,0-1.41l13.79-13.79c.98-.98,2.56-.98,3.54,0,.98.98.98,2.56,0,3.53l-13.79,13.79Z"/>
  </g>
  <path class="st35" d="M46.26,574.93l1.53,1.53-2.9,1.38,1.38-2.91Z"/>
  <path class="st44" d="M115.66,561.38c.21.44.74.63,1.18.42.44-.21.63-.74.43-1.18l-1.61.76ZM104.73,565.1q.88-.14.88-.14h0s0,0,0,0h0s0,0,0,0c0,0,0-.02,0-.04,0-.04-.01-.11-.02-.19-.01-.17-.03-.42-.03-.72,0-.61.08-1.39.35-2.15.27-.76.71-1.48,1.45-2.02.74-.53,1.84-.94,3.52-.94v-1.78c-1.97,0-3.46.48-4.56,1.28-1.1.79-1.73,1.85-2.09,2.86-.35,1.01-.45,2-.45,2.73,0,.37.01.67.03.89,0,.11.02.2.03.26,0,.03,0,.06.01.07,0,0,0,.02,0,.02,0,0,0,0,0,0,0,0,0,0,0,0h0s0,0,.88-.14ZM110.88,558.89c1.5,0,2.55.33,3.28.78.73.45,1.2,1.06,1.51,1.71l1.61-.76c-.43-.92-1.12-1.81-2.18-2.47-1.06-.66-2.44-1.04-4.21-1.04v1.78Z"/>
  <path class="st22" d="M117.09,565.55h-12.43c-1.47,0-2.66,1.19-2.66,2.66v9.32c0,1.47,1.19,2.66,2.66,2.66h12.43c1.47,0,2.66-1.19,2.66-2.66v-9.32c0-1.47-1.19-2.66-2.66-2.66Z"/>
  <circle class="st22" cx="110.88" cy="573.09" r="2.66"/>
  <path class="st4" d="M161.98,565.1s-1.15-7.1,6.15-7.1,6.15,7.1,6.15,7.1"/>
  <path class="st4" d="M174.34,565.55h-12.43c-1.47,0-2.66,1.19-2.66,2.66v9.32c0,1.47,1.19,2.66,2.66,2.66h12.43c1.47,0,2.66-1.19,2.66-2.66v-9.32c0-1.47-1.19-2.66-2.66-2.66Z"/>
  <circle class="st4" cx="168.12" cy="573.09" r="2.66"/>
  <path class="st15" d="M225.25,562h-7c-1.1,0-2,.9-2,2s.9,2,2,2h7"/>
  <path class="st19" d="M232.13,561h0c1.72,0,3.12,1.39,3.12,3.12h0c0,1.72-1.39,3.12-3.12,3.12h0c-1.72,0-3.12-1.39-3.12-3.12h0c0-1.72,1.39-3.12,3.12-3.12Z"/>
  <path class="st15" d="M226.25,576.23h7c1.1,0,2-.89,2-2s-.9-2-2-2h-7"/>
  <path class="st19" d="M219.36,577.23h0c-1.72,0-3.12-1.39-3.12-3.12h0c0-1.72,1.39-3.12,3.12-3.12h0c1.72,0,3.12,1.39,3.12,3.12h0c0,1.72-1.39,3.12-3.12,3.12Z"/>
  <path class="st44" d="M274.49,576.16c-.19.55-.71.92-1.29.92-.95,0-1.61-.94-1.29-1.84l4.67-12.92c.29-.79,1.04-1.32,1.88-1.32h.07c.84,0,1.59.53,1.88,1.32l4.66,12.9c.33.91-.34,1.86-1.31,1.86-.59,0-1.12-.37-1.31-.93l-.74-2.11c-.14-.4-.52-.67-.94-.67h-4.59c-.43,0-.8.27-.94.67l-.74,2.13ZM278.14,565.8l-1.59,4.53c-.11.32.13.67.47.67h2.94c.35,0,.59-.34.47-.67l-1.61-4.52c-.07-.24-.6-.24-.68,0Z"/>
  <path class="st44" d="M287.81,576.52c-.11.29-.39.48-.7.48-.53,0-.89-.53-.69-1.02l2.5-6.24c.18-.45.61-.74,1.09-.74s.91.29,1.09.74l2.49,6.22c.2.5-.17,1.04-.7,1.04-.31,0-.59-.19-.71-.48l-.29-.75c-.14-.37-.5-.62-.9-.62h-1.99c-.4,0-.76.24-.9.62l-.29.76ZM289.81,571.39l-1.01,2.58h2.4l-1.02-2.58c-.05-.13-.33-.13-.38,0Z"/>
  <path class="st44" d="M339.64,559h2.92l-2.92,9.66h3.86l-.94,2.65-2.92,8.21,2.15-8.21h-4.32l2.17-12.31Z"/>
  <path class="st7" d="M342.56,571.31l.94-2.65h-3.86l2.92-9.66h-2.92l-2.17,12.31h4.32M342.56,571.31l-2.92,8.21,2.15-8.21M342.56,571.31h-.77"/>
</svg>