<?xml version="1.0" encoding="UTF-8"?>
<svg id="Layer_1" xmlns="http://www.w3.org/2000/svg" version="1.1" viewBox="0 0 41 41">
  <defs>
    <style>
      .st0 {
        fill: #1ed760;
      }
    </style>
  </defs>
  <path class="st0" d="M40.7,20.5c0,11.15-9.04,20.2-20.2,20.2S.3,31.65.3,20.5,9.35.3,20.5.3s20.2,9.04,20.2,20.2ZM32.45,18.2c.96.54,2.16.2,2.63-.76s.1-2.05-.88-2.6c-2.22-1.23-4.51-2.11-7.01-2.72-6.13-1.49-13.06-1.6-19.16.08-1.05.29-1.64,1.26-1.43,2.26.2.94,1.13,1.68,2.18,1.43,1.29-.3,2.52-.65,3.87-.82,6.46-.83,14.03-.13,19.8,3.12ZM30.11,24.46c.83.49,1.87.11,2.23-.75.34-.8-.04-1.63-.86-2.1-6.57-3.77-15.04-4.65-22.3-2.57-.9.26-1.4,1.05-1.21,1.91.16.74.96,1.42,1.83,1.17,1.89-.53,3.74-.87,5.72-.98,5.1-.27,10.16.73,14.6,3.32ZM27.89,29.77c.72.44,1.46.3,1.86-.35s.17-1.38-.51-1.78c-6.03-3.61-12.78-3.69-19.49-2.2-.73.16-1.09.88-.96,1.48.17.76.83,1.11,1.58.95,5.9-1.28,12.14-1.36,17.51,1.89Z"/>
</svg>
